<?xml version="1.0" encoding="UTF-8" standalone="no"?>
<!-- Created with Inkscape (http://www.inkscape.org/) -->

<svg
   xmlns:dc="http://purl.org/dc/elements/1.1/"
   xmlns:cc="http://creativecommons.org/ns#"
   xmlns:rdf="http://www.w3.org/1999/02/22-rdf-syntax-ns#"
   xmlns:svg="http://www.w3.org/2000/svg"
   xmlns="http://www.w3.org/2000/svg"
   version="1.1"
   width="615"
   height="360"
   id="svg3180">
  <metadata
     id="metadata3186">
    <rdf:RDF>
      <cc:Work
         rdf:about="">
        <dc:format>image/svg+xml</dc:format>
        <dc:type
           rdf:resource="http://purl.org/dc/dcmitype/StillImage" />
        <dc:title></dc:title>
      </cc:Work>
    </rdf:RDF>
  </metadata>
  <defs
     id="defs3184" />
  <path
     d="M 271,359.54705 272.08641,356.70969 272.6358,349.5864 272.16262,342.41264 271.664,334.00238 271.75173,325.57875 272.85984,317.23603 276.01654,309.47596 279,304.15316 279.925,302.83333 281.175,301 282.40509,298.84513 283.57175,295.84513 285.0885,290.5 287.64682,282.52425 288.90233,274.23588 289.56472,265.87481 290.01763,257.5 290.53167,248.01925 291.16291,238.54642 292.02399,229.09192 291.63073,220.09192 288.69009,214.64233 286.12217,209 283.40285,201.831 281.27143,194.4628 279.49434,187.00227 277.89511,179.5 276.33001,171.53663 274.91781,163.54601 273.90103,155.5 273.06307,152.97197 270.06856,146 269.5588,140.02315 271.32195,134.75 273.28168,135 275.84715,139.75 277.40272,144.73192 280.75718,148.54686 285.81024,152.79686 291.29422,156 294.32544,157.4057 297.94116,159.48708 300.44971,161.08137 306.09375,160.94983 307.46899,158.94983 308.98482,158 310.79384,156.25 312.75,154.18045 315,151.06782 310.53268,146.13582 304.25,142.88737 297.96754,139.57487 294.49927,135.0251 301.5,133.98657 309.62394,133.71015 317.75071,133.89636 325.85221,134.57133 333.86513,135.92181 341.13874,139.22449 343.25583,139.20264 346.48482,139.36524 345.34489,143 338.81098,144.43412 333,147.52127 331.65741,149.70031 327.34637,157.46025 326.97524,159.5153 326.42296,165.61935 326.58704,171.79733 326.8615,181.33395 326.34465,190.85275 322.81,199.56362 317.17524,200.48527 309.42411,197.06298 310.36935,200.47752 312.34401,206.26752 310.36916,210 309,211.04531 312.47304,211.43908 317.13355,213.39377 323.78333,214.81667 325.60579,216.58492 320.23225,217.57675 313.99744,216.81883 307.75,216.18303 300,217.26572 301.75,219.71553 304.8067,222.18415 307.40172,224 310.43515,225.92834 309.49771,232 301.42479,228.50288 298.25973,227.64233 297.19012,231.11553 300.04397,235.02353 307.60982,237.08722 315.31875,238.59195 323.09601,239.44067 327.40884,240.1032 329.71043,243.91582 322.38105,249.22201 318.55818,249.95172 315.14459,250.07738 312.58067,250.25799 311.41667,250.25 309.74541,249 306.82261,247.33946 305.92364,250.37645 313.28207,256.22142 322.5,258.55642 331.20034,260.62739 337.71924,261.79608 343.97645,259.41731 348.80978,257.92935 353.19488,257.25 358.74201,252.62971 365.20434,249.62629 371.05993,245.39811 374.96842,241.42825 378.91951,237.5 383.84238,231.64284 388.15187,225.31439 391.59835,218.5 392.29947,215.5 389.99274,217.5 387.68602,219.5 388.3492,217 390.13838,207.5 391.54615,198.74576 392.86639,195.19284 394.93527,202.19284 398.0796,210.5 400.03157,216.5 403.38724,224.07846 405.5209,231.32391 405.67395,238.86031 403.85415,246.19264 400.10924,254.19614 395.76576,261.89698 390.70142,269.1118 389.98489,270.1118 389.1206,273.18279 388.23778,279.68279 386.32261,286.50579 382.78592,292.73696 379.35031,298.8212 376.28851,305.10098 374.36831,311.70165 376.01346,308.96751 380.8802,303.43544 383.84766,301 387.11552,296.75044 391,291.75044 392.5,291 393.34664,298.11102 392.438,306.30618 391.51269,314.5 390.60665,322.92539 389.76988,331.35811 389.00456,339.79873 388.36959,348.25 388.03476,354.125 387.69992,360 379.87481,360 372.04973,360 364.22456,360 356.39945,360 348.57437,360 340.7492,360 341.4578,351.25 342.07433,343.16265 342.52552,335.06464 342.04359,327 340.87343,322.02626 339.94372,317 337.34188,307.92126 337.25,302.20706 338.42604,293.06497 337.52133,283.72823 335.79668,274.50744 332.80522,265.63604 327.74262,268.03842 323.21663,274.19401 319.85136,281.05415 317.73804,288.39658 317,296.00079 315.73973,301.97221 313.58871,307.70156 310.06445,316.6378 307.37012,325.85706 305.4164,335.2634 303.88978,344.75 302.76807,352.375 301.64637,360 293.98478,360 286.32318,360 278.64645,359.93865 271,359.54705 271,359.54705"
     id="path3093"
     style="fill:#000000" />
  <path
     d="M 375.94445,289.40922 381.32441,282.53151 384.85375,275.53718 379.23271,282.02262 374.00341,288.85065 369.18065,295.95805 372.35031,293.71481 375.94445,289.40922 375.94445,289.40922"
     id="path3091"
     style="fill:#000000" />
  <path
     d="M 314.45888,223.93347 318.09868,223.44551 321.5,224.92172 318.30902,224.96086 314.45888,223.93347 314.45888,223.93347"
     id="path3089"
     style="fill:#000000" />
  <path
     d="M 506.17929,196.75 503.51243,191.75153 501.03738,186.65445 500.43148,180.07571 501.16832,175.07161 498.01492,170.51933 493.71139,165.76437 488.09535,163.44107 487,162.54545 485.85371,159.13736 488.44721,151.02007 491.68745,148.59401 496.01119,143.38907 500.98148,138.7767 506.5,134.86155 514.80742,133.52048 521.94512,138.23949 528.1217,144.25 533.6706,149 539.36841,155.05902 543.32514,162.58947 546.23284,170.58077 545.28216,179.35613 539.96761,185.68922 533.53811,190.94495 526.65335,195.58998 519.37021,199.5766 511.48017,202 506.17929,196.75 506.17929,196.75"
     id="path3087"
     style="fill:#000000" />
  <path
     d="M 347.71328,197.28087 343.60338,188.81248 342.67205,179.40799 342.72957,174.40744 343.90919,169.61371 341.99049,165.1332 342.05902,160 344,158.5 345,157 346,158.45031 347.75,160.9199 348.05,161.96959 350.96858,164.31298 352.08333,167 352.5,171.18195 357.57494,171.14781 361.08581,170.55303 360.76585,177 359.05672,179.25 355.91623,187.74554 353.33651,196.42405 351.40739,200.70492 347.71328,197.28087 347.71328,197.28087"
     id="path3085"
     style="fill:#000000" />
  <path
     d="M 128.5,194.59156 122.61402,189.3807 119.05475,185.86554 114.77175,183.27203 106.95739,182.52203 101.97779,184.01946 97.923877,181.29978 99.753376,174.54755 102.6095,170.49554 100.71785,167.25659 98.826204,164.01765 93.355985,171.00882 89.05646,175.86049 83.613444,177.18356 86.71654,171.19342 91.28869,166.00789 96.812209,162 96.973603,158.90796 96.840108,152.62725 100.23588,147.33329 103.25507,144.5 102.58222,148.25 104.59706,148.75 108.66198,143.19208 113.19407,138 119.13543,131.58113 125.07133,125.15703 130,118.40703 137.05419,120.10957 142.45147,123.38509 146.35373,128.16229 147.28136,130.65976 145.8512,135 142.70819,137.11756 137.25,140.63098 134,144.10446 130.75,149.9994 125.57317,157.11267 130.02216,157.18966 136.67799,152.50297 144.33986,150 147.61624,153.86182 146.60076,158.83697 140.03298,164.40061 133.16194,169.59797 135.16194,173.00993 140.5,175.67632 145.49941,174.40737 149,171.02475 151.36163,170.5 148.90762,175.52932 147,177.42666 143.50971,183.10927 140.00971,189.75 133.75,195.96086 128.5,194.59156 128.5,194.59156"
     id="path3083"
     style="fill:#000000" />
  <path
     d="M 410.08809,163.86124 411.13816,158.16105 414.20007,158.26624 413.47455,163.23218 410.94387,167.53469 410.08809,163.86124 410.08809,163.86124"
     id="path3081"
     style="fill:#000000" />
  <path
     d="M 402,162.94098 403,162.5 404,163.55902 403,164 402,162.94098 402,162.94098"
     id="path3079"
     style="fill:#000000" />
  <path
     d="M 453.92207,158.58873 448.23726,157.88155 443.1887,156.81427 441.48527,151.92349 442.43766,146.5936 444.1863,142.17219 449.6482,139.16049 455.57505,137.32265 457.85066,144.0833 459.99402,150.88768 462,157.73255 453.92207,158.58873 453.92207,158.58873"
     id="path3077"
     style="fill:#000000" />
  <path
     d="M 390.52837,153.4625 386.70096,150.24919 388.94152,145.6208 393.53421,140.40206 397.50787,146.3211 398.34857,149.75 403.375,151.125 402.80505,155.5 397.5,152.03063 396.7288,152.81123 396.15669,155.13381 390.52837,153.4625 390.52837,153.4625"
     id="path3075"
     style="fill:#000000" />
  <path
     d="M 74.976453,151.35976 71.406061,147.26061 77.26696,149.77572 82.410469,153.62728 74.976453,151.35976 74.976453,151.35976"
     id="path3073"
     style="fill:#000000" />
  <path
     d="M 421.75,151.72234 421.58695,143.87453 423.83003,138.35594 420.52308,134.57342 415.95849,133.06717 411.90869,134.33767 408.69037,131.97071 409.40125,127 412.49588,122.3608 415.5823,124.8608 416.14843,128.62211 419.0111,130.35222 424.49344,133.40253 433.16141,137.14379 434.02212,142.99365 430.69968,150 426.67199,152.6508 421.75,151.72234 421.75,151.72234"
     id="path3071"
     style="fill:#000000" />
  <path
     d="M 91,148.31527 95.836065,142.76789 101,137.5 106.1478,132.26109 111,126.76876 108.67431,126 102,120.68555 111.11055,121.88844 114.63957,122.14001 115.96975,124.57957 110.49798,131.37767 104.3411,137.59949 97.924077,143.5525 91,148.31527 91,148.31527"
     id="path3069"
     style="fill:#000000" />
  <path
     d="M 194,145.64 198.90614,138.07636 205.76345,132.01064 208.38912,126.26064 210.57607,125.25 213.18387,128.83501 214.38107,132.33501 213.85479,141.38417 212.69033,147.15796 210.29111,147.10889 205.92669,146.46209 200.77111,145.91087 197.91552,146.44779 195.4562,147.03635 194,145.64 194,145.64"
     id="path3067"
     style="fill:#000000" />
  <path
     d="M 287.25,146.96884 285,145.03222 289.65281,144.33136 294.5,145.94528 298.5,147.8381 294,147.85567 287.25,146.96884 287.25,146.96884"
     id="path3065"
     style="fill:#000000" />
  <path
     d="M 406.39203,145.57922 408.82269,140.07245 413.47603,136.15396 412.92049,139.92768 408.82337,145.65984 406.39203,145.57922 406.39203,145.57922"
     id="path3063"
     style="fill:#000000" />
  <path
     d="M 222.88331,142.1849 222.05194,137.19464 222.83562,132.23173 230,130.01079 229,131.5 229.56689,139.83363 226.85075,144.70719 222.88331,142.1849 222.88331,142.1849"
     id="path3061"
     style="fill:#000000" />
  <path
     d="M 161.54501,141.75 164.91287,138.44615 164.06574,142.96482 161.54501,141.75 161.54501,141.75"
     id="path3059"
     style="fill:#000000" />
  <path
     d="M 239.15563,139.47073 238.93284,130.56078 247.49274,131.97712 249.53807,134.37623 249.58923,139.92595 244.74486,141.65398 239.15563,139.47073 239.15563,139.47073"
     id="path3057"
     style="fill:#000000" />
  <path
     d="M 539.45888,139.93347 540.97994,139.47583 541.18146,141 539.45888,139.93347 539.45888,139.93347"
     id="path3055"
     style="fill:#000000" />
  <path
     d="M 440,139.27914 437.35074,136.4189 444.42827,139.11606 443.19098,139.86382 440,139.27914 440,139.27914"
     id="path3053"
     style="fill:#000000" />
  <path
     d="M 379,131.31278 372.49505,130.68837 366,129.95834 356.66791,129.20188 347.31851,128.66978 337.96552,128.21765 328.60954,127.81285 319.25213,127.44155 309.8939,127.09631 300.53644,126.77267 291.17745,126.46762 281.81784,126.17916 273.6963,125.89807 265.57875,125.52604 257.4941,124.82744 258.54909,120.90508 259.73173,112.00566 256.99543,103.49514 254.95263,95.395525 256.01851,86.993398 257.5643,78.389076 258.65508,69.712004 259.43364,61 259.8521,54.817388 262,52.5 264,50.932612 258.14504,52.517277 251.23885,54.981654 246,50.536245 249.09181,45.775241 255.13717,45 261.03114,45.477609 265,49.142173 266.25,50.742695 275.84475,48.163067 285.63806,46.441254 295.50257,45.184408 305.41073,44.339335 315.34623,44 325.00787,44.283881 334.64574,45.019873 344.24937,46.102595 353.81699,47.476713 363.344,49.112378 372.82499,50.995727 382.25202,53.124568 389.81368,55.149584 397.12201,57.897711 399.23998,59.612741 396.57535,61.358669 391.72394,68.842062 389.31425,77.554417 387.97905,86.5 387.27188,92.695474 386.42581,98.872867 386.37024,106.48842 386.85311,114.09794 387.56845,121.68742 388.53478,129.25 384.9249,131.74455 379,131.31278 379,131.31278"
     id="path3051"
     style="fill:#000000" />
  <path
     d="M 502.0146,128.53841 500.73454,123.50681 498.69518,118.95697 498.9421,114.72539 500.9479,117.09735 502.37748,120.51168 504.27637,124.05114 504.96807,127.46152 503.91623,131 502.0146,128.53841 502.0146,128.53841"
     id="path3049"
     style="fill:#000000" />
  <path
     d="M 257.5,129 257,128.13363 261,129 257.5,129 257.5,129"
     id="path3047"
     style="fill:#000000" />
  <path
     d="M 533.31537,121.93899 529.60118,117 527.59686,114.32413 525.46118,110.24057 524.79649,109.2345 518.77743,102.55863 513.82628,94.89232 510,86.662142 514.76574,88.983174 518.94015,95.428965 523.33992,101.72547 528.0505,108.39533 532.59335,115.17831 536.21404,122.34579 533.31537,121.93899 533.31537,121.93899"
     id="path3045"
     style="fill:#000000" />
  <path
     d="M 410.78349,113.25 407.4892,106.69613 407,99.288248 407.20212,94.14589 408.55128,89.230243 412.9057,85.667676 417.3012,88.043779 417.20937,96.402487 416.59253,104.75206 415.4865,113.04254 410.78349,113.25 410.78349,113.25"
     id="path3043"
     style="fill:#000000" />
  <path
     d="M 495.72917,112.39583 496.25,106.01531 499.33333,107.98469 497.3125,110.5625 495.72917,112.39583 495.72917,112.39583"
     id="path3041"
     style="fill:#000000" />
  <path
     d="M 461.78615,107.25 459.43999,102.16713 458.91356,97 460.50034,99.001061 463.14965,102.08009 464.93324,100.82903 465.48277,96.68623 465.13146,92.389177 463.92604,85.885021 467.53744,81 470.18045,78.828328 473,79.225537 475.9682,85.171581 479.96651,79.916095 483.39525,74.587614 484.42874,68.558153 485.91736,60.720954 484.46503,52.932375 484.51591,49.355521 491.50902,55.162994 496.07577,63.677926 498.83858,69.20248 501.99316,74.495774 505.07209,79.184672 507,84.460162 504.64894,86 497.52533,88.535206 491.25,92.757888 492.51342,98.414013 494.37275,101.77242 493.42585,104.85014 491,102.13211 489.66669,98.558855 485.91669,98.254427 478.25,101.46707 473.98112,106.96472 470.96088,110.39898 465.36067,111.69459 461.78615,107.25 461.78615,107.25"
     id="path3039"
     style="fill:#000000" />
  <path
     d="M 119,108.46482 120.62647,105.44733 123.6517,104.1259 123.37024,107.14338 119,108.46482 119,108.46482"
     id="path3037"
     style="fill:#000000" />
  <path
     d="M 245.01097,107.51322 243.7849,102.19045 243.5922,96.672645 244.42632,86.7413 250.92443,80.177259 254.25159,79.854518 253.82388,88.800469 253.33285,94.821128 251.44809,100.50184 247.93769,106.20725 245.01097,107.51322 245.01097,107.51322"
     id="path3035"
     style="fill:#000000" />
  <path
     d="M 125.22619,100.82144 129.62904,98.295702 128.427,100.47853 125.22619,100.82144 125.22619,100.82144"
     id="path3033"
     style="fill:#000000" />
  <path
     d="M 130.59603,96.155374 133.62244,92 135.00874,90.25 140.86176,82.213266 147.95372,75.596362 143.53771,83.633897 137.65882,90.785551 130.59603,96.155374 130.59603,96.155374"
     id="path3031"
     style="fill:#000000" />
  <path
     d="M 453.25646,90.463804 449.00646,84.25 454.882,86.378258 457.82817,92.592062 457.5,95.427607 453.25646,90.463804"
     id="path3029"
     style="fill:#000000" />
  <path
     d="M 420.07895,87.416667 420.68311,86.8125 420.60417,88.729167 420.07895,87.416667 420.07895,87.416667"
     id="path3027"
     style="fill:#000000" />
  <path
     d="M 432.41584,85.403071 433.18279,77.87194 436.03277,71 441.62179,78.85894 438.94101,85.560866 432.41584,85.403071 432.41584,85.403071"
     id="path3025"
     style="fill:#000000" />
  <path
     d="M 156,82.107746 153.04603,78.174184 150.09205,76.377766 151.88397,73.438883 155.08794,69.370978 164.11606,65.873491 173.32062,62.836754 182.65463,60.321293 181.52405,63.601219 180.00616,68.67742 176.99992,73.1259 171.86514,75 169.97952,77.487343 165.86845,83.054491 161.02681,83.014346 157.43608,83.053051 156,82.107746 156,82.107746"
     id="path3023"
     style="fill:#000000" />
  <path
     d="M 412,80.059017 415.10676,78.565983 414.85676,80.109687 412,80.059017 412,80.059017"
     id="path3021"
     style="fill:#000000" />
  <path
     d="M 203.66276,77.179853 203.47911,70.017337 210.9599,71.202384 216,76.959568 210.01306,78.939057 203.66276,77.179853 203.66276,77.179853"
     id="path3019"
     style="fill:#000000" />
  <path
     d="M 459.63148,78.29815 459.56926,70.100196 463.44084,63 469,70.182608 465.30225,75.536103 459.63148,78.29815 459.63148,78.29815"
     id="path3017"
     style="fill:#000000" />
  <path
     d="M 188.97732,70.977319 187.91956,64.458762 194.46001,62.426519 198,63.585151 195.79635,68.308769 192.51992,72.353984 188.97732,70.977319 188.97732,70.977319"
     id="path3015"
     style="fill:#000000" />
  <path
     d="M 230.13953,69.450256 229.03518,62.934259 233.84872,61.177313 239.0064,63.003266 243.79805,66.591011 242.25,70.5634 235.88953,71.398515 230.13953,69.450256 230.13953,69.450256"
     id="path3013"
     style="fill:#000000" />
  <path
     d="M 444.55773,66.304922 440.61546,63.727514 443.3635,61.363757 451,61.3 452.15762,64.757618 452.03517,67.457618 444.55773,66.304922 444.55773,66.304922"
     id="path3011"
     style="fill:#000000" />
  <path
     d="M 200,66 201.05902,65 201.5,66 200.44098,67 200,66 200,66"
     id="path3009"
     style="fill:#000000" />
  <path
     d="M 216.25,62.968838 214.05271,58.844658 217.85699,56.015313 222.03826,60.907641 216.25,62.968838 216.25,62.968838"
     id="path3007"
     style="fill:#000000" />
  <path
     d="M 409,60.858796 403.71249,59.711158 400.01531,53.872445 402.85979,49.442904 408.58778,49.296904 415.0984,50.9081 417,57.122445 414.85485,61.968107 409,60.858796 409,60.858796"
     id="path3005"
     style="fill:#000000" />
  <path
     d="M 427.03518,59.065741 427.25,53.005577 432.31118,54.069473 435.81118,57.313896 433.33859,59.20215 430.52957,59.95215 427.03518,59.065741 427.03518,59.065741"
     id="path3003"
     style="fill:#000000" />
  <path
     d="M 463,59.187091 466.77346,54.975425 471.88739,52.372521 476.98469,57.25 472.55887,58.468197 466,58.5 463,59.187091 463,59.187091"
     id="path3001"
     style="fill:#000000" />
  <path
     d="M 201.25,57.566199 201.54705,54.160515 209,54.377555 201.25,57.566199 201.25,57.566199"
     id="path2999"
     style="fill:#000000" />
  <path
     d="M 225.49563,55.992937 226.47975,54.369399 228.54112,55.933469 225.49563,55.992937 225.49563,55.992937"
     id="path2997"
     style="fill:#000000" />
  <path
     d="M 234.02896,49.03906 236.25,46.621624 239,47.980948 234.02896,49.03906 234.02896,49.03906"
     id="path2995"
     style="fill:#000000" />
  <path
     d="M 225,47.035184 229.70918,44.375852 229.65492,46.456872 225,47.035184 225,47.035184"
     id="path2993"
     style="fill:#000000" />
  <path
     d="M 363,38.084359 358.03951,36.48908 352.87719,34.355361 349.44482,30.283201 349.03411,26.589716 342.22847,23.286614 334.28362,22.834971 326.32252,22.787614 319.24599,22.784892 313.54909,20.745088 319.18553,17.56707 324.39155,16.4791 327.94872,15.468307 334.58619,16.399486 341.2872,16.878855 348,17.030425 355.68449,17.932221 363.32526,19.185985 370.9398,20.586524 378.5,22.249447 384.07874,24.677686 386.4685,26 389.9682,30.366631 384.5,29.466275 383.75,30.052821 385,32.687367 379.12995,33.614809 373.21212,31.691963 369,31.5 367.12244,33 364,34.067388 361.75,34.605058 362.21195,35.217332 365.43057,37.679662 363,38.084359 363,38.084359"
     id="path3190"
     style="fill:#000000" />
</svg>
